<?xml version="1.0" standalone="no"?>
<!DOCTYPE svg PUBLIC "-//W3C//DTD SVG 20010904//EN"
 "http://www.w3.org/TR/2001/REC-SVG-20010904/DTD/svg10.dtd">
<svg version="1.0" xmlns="http://www.w3.org/2000/svg"
 width="599.000000pt" height="599.000000pt" viewBox="0 0 599.000000 599.000000"
 preserveAspectRatio="xMidYMid meet">
<metadata>
Created by potrace 1.14, written by Peter Selinger 2001-2017
</metadata>
<g transform="translate(0.000000,599.000000) scale(0.100000,-0.100000)"
fill="#000000" stroke="none">
<path d="M4627 5956 c-4 -10 -12 -14 -19 -10 -7 5 -9 2 -6 -7 4 -10 -1 -15
-13 -15 -11 0 -19 5 -19 10 0 5 -6 2 -13 -9 -8 -10 -19 -15 -25 -11 -7 4 -12
3 -12 -2 0 -5 -13 -15 -30 -22 -16 -7 -27 -16 -24 -21 3 -5 -9 -7 -25 -5 -17
2 -28 0 -25 -5 2 -5 -7 -11 -21 -15 -13 -3 -22 -10 -19 -15 5 -8 -9 -13 -28
-10 -5 0 -8 -4 -8 -10 0 -5 -4 -8 -9 -5 -5 3 -12 -1 -15 -10 -3 -9 -13 -14
-21 -10 -8 3 -19 -3 -24 -12 -6 -9 -11 -12 -11 -5 0 7 -7 10 -16 6 -13 -5 -13
-7 -2 -14 9 -6 4 -9 -14 -9 -18 0 -28 -5 -28 -15 0 -8 -5 -15 -11 -15 -7 0
-18 -8 -26 -17 -8 -10 -12 -12 -8 -5 3 6 1 12 -4 12 -6 0 -11 -7 -11 -15 0 -8
-5 -15 -11 -15 -5 0 -7 6 -4 13 4 6 -2 1 -13 -12 -12 -15 -24 -21 -32 -16 -9
6 -11 4 -5 -5 6 -10 4 -12 -11 -6 -10 4 -15 4 -11 0 4 -4 -3 -12 -16 -18 -12
-7 -22 -17 -22 -23 0 -6 -4 -15 -9 -20 -5 -5 -6 -3 -2 5 4 6 2 12 -3 12 -6 0
-11 -4 -11 -10 0 -5 -10 -10 -22 -10 -21 0 -21 0 -2 -15 18 -14 17 -14 -9 -5
-16 5 -26 6 -23 1 7 -10 -22 -24 -34 -16 -4 3 -7 -3 -6 -13 1 -11 -6 -16 -17
-15 -12 0 -16 -4 -13 -12 3 -10 0 -12 -11 -8 -10 4 -14 2 -9 -5 3 -6 2 -13 -4
-17 -5 -3 -10 -1 -10 5 0 6 -5 8 -10 5 -6 -4 -8 -11 -5 -16 4 -5 -2 -9 -12 -9
-15 0 -16 -2 -3 -10 13 -8 12 -10 -5 -11 -11 -1 -24 -1 -28 0 -5 1 -6 -3 -2
-9 3 -5 1 -10 -5 -10 -6 0 -8 -5 -5 -10 4 -6 3 -10 -2 -9 -19 3 -33 -2 -33
-12 0 -5 6 -7 13 -3 7 4 7 2 -2 -7 -11 -11 -14 -11 -18 -1 -3 9 -13 2 -29 -19
-13 -18 -21 -37 -17 -42 3 -6 1 -7 -6 -3 -6 4 -18 2 -26 -4 -8 -6 -19 -9 -25
-5 -6 4 -9 1 -8 -7 2 -7 -2 -12 -9 -11 -8 2 -10 -4 -6 -14 4 -11 3 -14 -5 -9
-7 4 -12 1 -12 -8 0 -8 -9 -20 -20 -26 -11 -6 -20 -18 -20 -26 0 -8 -4 -12
-10 -9 -9 6 -14 -8 -11 -28 1 -5 -3 -6 -9 -2 -5 3 -10 1 -10 -5 0 -7 -6 -10
-14 -7 -9 4 -12 -2 -10 -18 1 -18 -2 -22 -14 -18 -10 4 -13 2 -8 -5 4 -6 -3
-16 -15 -23 -17 -9 -19 -13 -8 -20 10 -6 7 -9 -11 -10 -14 0 -19 -3 -12 -6 6
-2 12 -9 12 -14 0 -6 -3 -8 -7 -6 -5 3 -13 -1 -20 -8 -10 -11 -10 -15 0 -18 9
-4 9 -6 0 -6 -7 -1 -13 -8 -13 -17 0 -10 -5 -14 -16 -10 -8 3 -13 2 -9 -3 3
-5 -2 -16 -10 -25 -9 -8 -17 -19 -18 -23 -1 -4 -5 -7 -8 -6 -3 1 -5 -9 -3 -22
1 -14 -2 -25 -7 -25 -5 0 -9 5 -9 10 0 6 -5 10 -11 10 -5 0 -8 -4 -5 -9 6 -9
-22 -26 -37 -22 -5 1 -6 -3 -2 -9 3 -5 3 -10 -2 -11 -4 0 -19 -2 -31 -3 -13
-2 -26 4 -29 11 -5 12 -7 12 -14 2 -8 -14 -39 -22 -39 -10 0 9 -31 8 -48 -3
-7 -4 -12 -2 -12 4 0 8 -6 8 -20 0 -16 -9 -22 -8 -27 5 -4 13 -8 14 -14 4 -4
-7 -20 -14 -36 -15 -15 -2 -42 -3 -60 -5 -20 -1 -30 -6 -26 -13 5 -8 3 -8 -8
0 -17 13 -49 14 -49 2 0 -6 -6 -8 -12 -6 -7 3 -19 -2 -26 -9 -11 -11 -17 -11
-29 -1 -13 10 -19 8 -36 -12 -11 -14 -18 -18 -15 -9 4 9 1 16 -8 16 -8 0 -14
-7 -14 -16 0 -14 -2 -14 -10 -1 -5 8 -10 10 -10 4 0 -13 -31 -15 -47 -2 -7 6
-17 1 -27 -14 -9 -12 -16 -19 -16 -14 0 5 -8 3 -17 -6 -10 -8 -28 -13 -40 -12
-15 1 -23 -4 -23 -15 -1 -13 -3 -12 -17 4 -15 20 -15 20 -10 -3 4 -19 3 -21
-9 -11 -11 9 -14 8 -14 -7 0 -16 -2 -17 -11 -4 -8 11 -12 12 -16 2 -2 -6 -9
-10 -14 -6 -5 3 -9 1 -9 -5 0 -6 -7 -7 -17 -4 -11 4 -14 3 -9 -6 5 -8 0 -10
-18 -7 -20 4 -24 1 -19 -12 6 -15 5 -15 -10 -3 -14 11 -18 11 -23 -2 -3 -9
-12 -18 -20 -21 -9 -3 -12 -1 -9 4 9 15 -4 12 -20 -4 -8 -7 -11 -17 -7 -20 3
-4 -2 -4 -12 0 -15 6 -17 4 -11 -7 8 -12 6 -12 -8 0 -11 8 -17 9 -17 2 0 -7
-8 -8 -26 0 -25 9 -26 8 -13 -8 7 -10 9 -15 5 -11 -5 4 -15 3 -22 -3 -8 -7
-14 -6 -20 2 -5 8 -3 9 6 4 9 -5 11 -4 6 4 -5 7 -12 9 -19 3 -22 -17 -46 -21
-53 -10 -5 7 -2 8 6 3 9 -6 11 -4 5 4 -5 9 -10 10 -18 2 -15 -15 -30 -14 -24
2 4 10 -2 13 -19 9 -16 -3 -24 0 -24 9 0 12 -2 12 -9 0 -7 -11 -10 -9 -16 8
-3 11 -11 21 -16 21 -6 0 -7 -6 -3 -12 5 -9 3 -9 -9 1 -9 7 -14 18 -10 24 3 5
1 7 -5 3 -6 -3 -13 -2 -17 4 -4 6 -10 8 -15 5 -4 -3 -10 2 -14 10 -3 9 -12 12
-22 8 -12 -4 -15 -3 -10 5 4 7 1 12 -8 12 -9 0 -16 5 -16 11 0 8 -6 7 -17 -2
-9 -8 -14 -9 -11 -4 4 6 3 17 -3 25 -7 13 -9 13 -9 0 -1 -12 -2 -12 -10 2 -6
10 -20 15 -35 14 -13 -2 -22 0 -20 4 3 4 -3 14 -12 21 -10 8 -14 9 -10 2 5 -8
0 -11 -13 -10 -11 1 -20 8 -20 15 0 9 -7 12 -20 9 -11 -3 -18 -1 -14 4 3 5 -4
9 -15 9 -12 0 -21 6 -21 13 0 8 -4 7 -10 -3 -9 -13 -13 -12 -30 9 -11 13 -20
19 -20 14 0 -5 -7 -10 -15 -10 -12 0 -12 3 -2 16 9 12 9 13 -1 7 -7 -4 -12 -2
-12 6 0 8 -3 9 -8 3 -10 -14 -32 -17 -32 -4 0 5 -4 7 -10 4 -5 -3 -10 -1 -10
4 0 6 -5 11 -11 11 -5 0 -7 -4 -4 -10 3 -6 -1 -7 -9 -4 -9 3 -13 11 -10 16 4
6 -4 8 -17 6 -13 -1 -31 4 -39 12 -11 11 -12 12 -5 1 8 -10 1 -10 -25 4 -26
14 -33 14 -25 4 6 -8 3 -7 -7 3 -17 19 -33 25 -24 9 11 -17 -29 -6 -42 12 -11
14 -17 15 -28 6 -10 -8 -14 -8 -14 0 0 6 -3 10 -7 10 -31 -5 -73 3 -67 12 4 7
-1 7 -16 -1 -13 -7 -20 -8 -16 -2 3 6 2 13 -4 17 -5 3 -10 2 -10 -3 0 -6 -9
-8 -20 -5 -11 3 -18 9 -15 12 2 4 -2 8 -10 8 -8 0 -11 -5 -8 -11 3 -6 0 -5 -8
2 -7 6 -20 12 -29 12 -13 0 -13 -1 0 -10 9 -6 10 -10 3 -10 -6 0 -15 5 -18 11
-4 6 -13 8 -20 5 -8 -3 -15 0 -17 6 -2 6 -27 12 -56 14 -28 1 -57 6 -64 10
-16 10 -88 12 -82 3 6 -10 -17 -5 -41 8 -11 5 -26 8 -34 5 -9 -3 -11 0 -6 9 6
11 5 12 -6 2 -7 -7 -17 -13 -22 -13 -4 0 -5 6 -1 13 5 8 2 8 -9 -2 -9 -7 -17
-10 -17 -6 0 4 -7 2 -15 -5 -12 -10 -16 -9 -21 4 -3 9 -10 13 -15 10 -5 -3 -9
3 -10 13 0 16 -1 16 -8 -2 -8 -19 -8 -19 -19 0 -11 19 -11 19 -12 1 0 -15 -3
-16 -15 -6 -12 10 -15 10 -15 -1 0 -9 -3 -10 -8 -4 -7 11 -52 16 -52 6 0 -3
-11 -6 -24 -6 -18 0 -22 3 -14 12 7 9 1 9 -27 2 -25 -7 -40 -7 -49 0 -7 6 -16
8 -20 4 -11 -11 -36 -12 -36 -2 0 6 -5 7 -10 4 -6 -3 -10 0 -11 7 0 7 -4 4 -9
-7 -5 -11 -9 -14 -9 -7 -1 6 -8 12 -17 12 -9 0 -13 -5 -9 -12 4 -7 0 -5 -8 5
-14 16 -16 16 -31 2 -9 -9 -16 -12 -16 -6 0 6 -13 4 -34 -4 -18 -8 -36 -12
-39 -9 -3 3 -3 -4 0 -17 5 -17 3 -20 -8 -14 -11 7 -11 5 1 -10 9 -11 10 -16 3
-11 -8 4 -13 1 -13 -8 0 -9 3 -16 8 -16 4 0 8 -16 8 -35 1 -23 -2 -32 -10 -28
-6 4 -5 -1 2 -10 8 -9 11 -21 8 -26 -4 -5 -2 -12 4 -16 5 -3 10 -24 10 -46 0
-21 5 -39 10 -39 6 0 10 -5 10 -11 0 -5 -4 -8 -9 -5 -12 8 -8 -18 5 -35 18
-23 23 -45 13 -60 -5 -9 -3 -22 7 -36 10 -17 11 -23 2 -23 -6 0 -3 -7 8 -16
10 -8 13 -13 7 -9 -7 3 -13 1 -13 -4 0 -6 4 -11 10 -11 12 0 9 -22 -5 -32 -6
-5 -6 -8 1 -8 6 0 17 -27 25 -60 7 -33 18 -60 24 -60 5 0 3 -5 -5 -10 -10 -7
-11 -10 -2 -10 8 0 11 -9 8 -25 -3 -14 0 -25 6 -25 6 0 8 -3 5 -7 -4 -3 1 -15
10 -26 10 -11 13 -17 6 -14 -6 4 -14 3 -18 -3 -3 -5 -2 -10 2 -10 5 0 14 -9
21 -21 9 -14 10 -19 2 -14 -9 6 -9 2 -1 -13 6 -12 12 -33 13 -47 1 -14 7 -24
14 -21 6 2 11 -2 11 -10 0 -9 -6 -13 -16 -9 -12 5 -12 2 2 -13 9 -10 14 -22
10 -25 -3 -4 0 -7 8 -7 11 0 11 -2 -1 -10 -12 -8 -12 -10 5 -10 17 0 17 -2 5
-10 -12 -8 -12 -10 5 -11 12 0 15 -3 7 -6 -10 -4 -9 -9 4 -24 15 -17 15 -19 1
-25 -13 -5 -14 -9 -4 -19 7 -7 15 -11 19 -9 4 2 10 0 13 -6 4 -6 3 -10 -2 -9
-22 4 -25 -3 -7 -17 10 -8 12 -12 4 -8 -8 4 -4 -4 8 -18 23 -25 23 -27 5 -37
-17 -10 -17 -10 2 -11 16 0 17 -2 5 -10 -12 -7 -10 -11 10 -19 14 -5 18 -10
10 -10 -11 -1 -11 -4 -2 -13 16 -16 15 -31 0 -23 -7 4 -5 0 4 -7 9 -8 18 -27
20 -44 3 -16 12 -46 21 -68 9 -21 17 -43 17 -48 0 -5 6 -6 12 -2 9 5 9 2 -1
-9 -9 -11 -10 -17 -2 -17 6 0 10 -3 9 -7 -1 -5 3 -23 10 -41 7 -22 16 -31 24
-27 7 4 4 -1 -6 -9 -16 -13 -17 -16 -4 -16 9 0 19 -7 22 -16 3 -8 2 -13 -3
-10 -5 3 1 -14 12 -39 11 -24 24 -42 28 -40 4 3 5 -4 2 -15 -3 -11 -1 -20 5
-20 5 0 13 -7 16 -16 3 -8 2 -13 -3 -9 -14 8 -6 -24 9 -38 12 -10 12 -9 1 6
-9 11 -10 17 -2 17 11 0 13 -4 15 -37 1 -23 18 -42 31 -35 6 3 3 -3 -5 -13
-14 -17 -13 -18 2 -12 12 4 15 2 11 -9 -3 -7 0 -14 5 -14 6 0 9 -9 7 -20 -2
-12 2 -20 10 -20 8 0 17 -5 21 -12 5 -8 1 -9 -12 -5 -16 6 -16 5 3 -12 17 -14
19 -21 10 -30 -7 -7 -7 -12 -2 -11 22 5 35 -1 35 -15 0 -8 5 -15 11 -15 5 0 8
-4 4 -9 -3 -5 -1 -12 5 -16 6 -4 7 -11 4 -17 -4 -7 -2 -8 4 -4 7 4 12 2 12 -4
0 -6 4 -9 9 -6 4 3 7 -6 5 -20 -2 -19 1 -24 12 -20 7 3 13 2 13 -2 -3 -20 2
-25 12 -12 8 12 9 10 4 -8 -4 -15 -1 -24 9 -28 9 -3 16 -12 16 -20 0 -8 7 -14
15 -14 17 0 37 -34 27 -45 -4 -5 -2 -5 4 -2 7 4 18 -1 25 -10 12 -14 12 -16
-1 -9 -8 4 -6 0 4 -8 11 -9 17 -16 13 -16 -4 0 -2 -10 5 -23 7 -12 12 -25 13
-29 0 -3 4 -10 9 -15 5 -5 6 -2 1 6 -5 9 -4 12 2 8 6 -4 8 -19 5 -33 -4 -21
-2 -25 9 -19 12 8 12 6 0 -8 -9 -12 -10 -17 -2 -17 7 0 9 -4 6 -10 -3 -5 1
-10 11 -10 14 0 14 -2 3 -16 -10 -13 -10 -17 2 -25 11 -7 11 -9 1 -9 -11 0
-11 -3 1 -14 8 -8 12 -29 11 -50 -2 -20 0 -36 4 -36 13 0 12 -60 -1 -60 -7 0
-4 -5 6 -11 10 -6 14 -15 10 -22 -4 -7 -8 -23 -8 -37 0 -14 -4 -30 -8 -37 -4
-7 -1 -16 9 -21 15 -8 15 -10 -1 -16 -12 -4 -14 -10 -8 -19 10 -13 10 -24 -1
-50 -5 -9 -6 -31 -4 -48 4 -23 1 -29 -10 -24 -12 4 -13 3 -2 -10 9 -11 9 -15
1 -15 -9 0 -9 -5 0 -21 8 -15 8 -19 0 -15 -12 8 -11 -21 2 -41 6 -9 3 -11 -7
-7 -11 4 -13 0 -9 -17 4 -14 2 -20 -4 -16 -14 9 -11 -25 2 -35 6 -5 3 -8 -7
-8 -9 0 -20 -5 -24 -12 -4 -7 -3 -8 4 -4 8 5 12 -2 12 -18 0 -14 -4 -26 -10
-26 -5 0 -10 -5 -10 -11 0 -5 4 -8 9 -5 5 4 4 -5 -2 -18 -8 -16 -14 -21 -19
-13 -6 9 -8 9 -8 0 0 -6 4 -14 10 -18 5 -3 1 -20 -10 -39 -13 -24 -15 -37 -7
-45 7 -7 6 -12 -7 -17 -12 -5 -14 -10 -6 -19 8 -10 8 -15 -1 -21 -8 -4 -9 -3
-5 4 4 7 5 12 2 12 -2 0 -11 -14 -20 -30 -8 -17 -10 -28 -5 -25 5 4 9 1 9 -4
0 -6 -4 -11 -10 -11 -5 0 -10 -9 -10 -21 0 -11 -4 -17 -10 -14 -6 4 -10 -5
-10 -20 0 -16 -4 -24 -11 -19 -8 4 -8 0 0 -15 10 -18 9 -20 -5 -14 -11 4 -15
3 -10 -5 3 -6 2 -13 -4 -17 -5 -3 -10 -15 -10 -26 0 -11 -3 -18 -8 -15 -4 2
-12 -7 -19 -20 -6 -13 -7 -22 -2 -18 5 3 6 -2 3 -10 -3 -9 -10 -14 -15 -11 -4
3 -6 -4 -4 -15 2 -11 0 -20 -6 -20 -5 0 -9 -7 -9 -16 0 -9 -5 -12 -12 -8 -7 5
-9 2 -5 -9 3 -9 1 -17 -5 -19 -5 -2 -16 -18 -24 -36 -7 -18 -9 -30 -4 -27 5 3
7 -1 4 -9 -3 -9 -9 -15 -12 -14 -20 2 -23 -4 -11 -19 12 -15 12 -16 -5 -10
-13 5 -17 3 -13 -7 3 -8 -1 -17 -8 -20 -8 -3 -12 -12 -9 -21 4 -8 1 -15 -6
-15 -9 0 -9 -4 1 -17 8 -9 9 -14 4 -11 -6 4 -17 -2 -24 -14 -10 -16 -10 -19 1
-12 7 4 2 -5 -11 -19 -14 -15 -21 -27 -16 -27 5 0 0 -7 -11 -16 -10 -8 -12
-12 -4 -8 12 6 13 5 3 -7 -7 -9 -9 -20 -5 -25 4 -5 5 -8 3 -7 -10 6 -30 -37
-26 -57 3 -18 2 -20 -10 -10 -11 9 -12 7 -8 -9 3 -12 9 -18 14 -15 5 3 9 -3
10 -13 0 -10 3 -13 6 -5 2 6 9 12 14 12 4 0 6 -6 3 -13 -5 -14 22 -17 43 -4 6
4 14 1 16 -5 4 -10 6 -9 6 1 1 11 4 11 18 0 13 -11 15 -11 9 -1 -5 9 -3 13 5
11 28 -3 50 1 45 9 -3 5 1 9 9 9 8 0 15 -10 16 -21 1 -18 2 -18 9 4 4 14 8 19
9 11 1 -11 4 -11 16 -1 8 7 15 8 15 3 0 -5 10 -9 21 -10 12 -1 27 -7 33 -14 8
-9 8 -10 -1 -5 -9 5 -11 2 -7 -8 3 -9 11 -13 17 -9 6 4 8 0 4 -10 -4 -10 -1
-17 6 -17 7 0 3 -7 -7 -15 -11 -8 -14 -15 -7 -15 7 0 9 -5 6 -10 -4 -6 -12 -7
-18 -3 -7 4 -6 0 2 -10 7 -9 9 -17 3 -17 -5 0 -9 -8 -8 -17 0 -10 -6 -18 -14
-18 -8 -1 -14 -6 -13 -13 2 -7 -2 -12 -8 -12 -5 0 -8 -4 -4 -9 3 -6 -4 -15
-15 -21 -11 -6 -18 -15 -15 -20 3 -5 -4 -14 -15 -20 -11 -6 -20 -18 -20 -28 0
-15 -2 -15 -10 -2 -9 14 -15 7 -11 -14 1 -5 -4 -6 -12 -3 -7 3 -19 -4 -26 -14
-6 -11 -17 -17 -23 -13 -7 4 -8 3 -4 -4 5 -8 0 -12 -13 -12 -11 0 -22 -9 -26
-20 -3 -11 -11 -20 -17 -20 -6 0 -6 -6 2 -15 11 -13 10 -15 -6 -9 -18 5 -18 5
-1 -6 9 -6 14 -16 11 -22 -4 -7 -2 -8 4 -4 7 4 12 2 12 -3 0 -6 7 -11 15 -11
8 0 15 -4 15 -10 0 -5 6 -10 14 -10 8 0 17 -6 19 -12 4 -10 6 -10 6 0 1 6 6
12 12 12 5 0 7 -4 4 -10 -3 -5 2 -10 12 -10 15 0 16 -2 3 -10 -8 -5 -10 -10
-5 -10 6 0 16 5 21 10 8 8 15 5 25 -7 13 -17 13 -17 -6 -3 -19 14 -19 14 -6
-2 7 -10 17 -15 22 -13 4 3 13 -3 19 -12 11 -17 11 -16 5 1 -6 20 -6 20 16 0
12 -10 19 -13 15 -6 -11 19 1 14 25 -10 20 -21 21 -21 15 -3 -6 19 -5 19 8 3
15 -21 30 -24 21 -5 -4 6 0 4 8 -5 11 -14 16 -15 26 -5 10 9 11 8 5 -6 -7 -19
15 -21 28 -2 5 6 8 6 8 -2 0 -7 9 -10 20 -8 12 2 23 -2 26 -8 2 -7 16 -14 30
-15 17 -1 23 2 18 10 -4 7 -3 8 5 4 8 -5 9 -12 3 -19 -5 -7 -8 -20 -7 -30 2
-9 -1 -14 -6 -11 -5 3 -26 -4 -45 -15 -20 -12 -40 -18 -46 -15 -7 4 -8 2 -4
-4 7 -12 -3 -16 -39 -13 -17 2 -18 0 -5 -9 13 -9 13 -11 1 -19 -12 -8 -9 -11
12 -16 15 -4 25 -10 22 -15 -2 -4 7 -12 21 -19 15 -6 23 -7 19 -1 -3 5 -1 10
4 10 6 0 11 -5 11 -11 0 -6 6 -9 14 -6 8 3 20 0 26 -8 8 -10 45 -14 45 -5 0 1
8 3 18 5 9 2 15 -1 11 -6 -3 -5 0 -9 6 -9 6 0 8 -5 4 -12 -5 -7 -3 -8 5 -3 22
13 142 15 135 2 -5 -8 -2 -8 7 0 17 17 32 17 23 1 -5 -8 0 -7 11 2 14 11 19
12 22 2 3 -6 9 -9 14 -6 6 3 16 0 24 -6 11 -9 15 -9 15 -1 0 9 5 9 20 1 14 -8
20 -8 20 0 0 6 5 8 11 4 18 -11 259 -10 259 1 0 7 3 7 8 0 9 -13 42 -16 42 -3
0 5 5 6 12 2 18 -11 88 -8 101 5 6 6 16 11 21 11 6 0 4 -5 -4 -10 -8 -5 -10
-10 -4 -10 6 0 14 3 18 7 12 13 48 14 40 1 -4 -7 -3 -8 4 -4 7 4 37 9 69 12
31 2 63 10 72 17 12 10 13 9 6 -3 -8 -13 -7 -13 8 -1 9 7 17 9 17 4 0 -5 7
-10 15 -10 8 0 12 4 9 9 -3 4 0 8 5 8 6 0 11 -6 11 -12 0 -10 2 -10 9 0 6 11
12 10 26 -5 17 -17 18 -17 12 0 -7 19 8 24 19 6 5 -8 13 -4 26 12 11 13 17 19
14 13 -3 -7 1 -15 10 -18 8 -3 12 -2 9 3 -3 5 -1 12 5 16 5 3 10 1 10 -4 0 -6
5 -11 11 -11 5 0 7 4 4 10 -3 6 1 7 9 4 9 -3 13 -11 9 -18 -5 -8 -3 -8 8 0 8
7 27 10 42 8 23 -2 28 0 23 14 -5 13 -3 13 9 -2 8 -11 15 -14 15 -7 0 7 5 9
10 6 6 -3 10 -1 10 6 0 8 4 9 13 1 10 -9 19 -7 37 5 15 11 20 12 15 3 -6 -10
-4 -12 7 -7 9 3 21 0 27 -6 8 -8 11 -8 11 2 0 7 5 9 10 6 6 -3 10 -1 10 6 0 8
4 8 15 -1 13 -11 14 -10 10 2 -5 12 4 13 49 8 45 -5 56 -3 59 10 3 11 5 9 6
-4 1 -20 1 -20 17 0 8 10 13 13 9 7 -4 -9 -1 -11 9 -7 9 3 13 10 10 15 -3 5 5
5 18 0 13 -4 28 -6 35 -4 7 2 22 -1 35 -8 20 -11 21 -10 11 2 -10 12 -9 15 5
16 9 1 30 4 45 7 22 5 27 4 21 -6 -6 -10 -3 -9 9 1 14 11 17 11 18 0 0 -8 4
-5 9 6 8 18 9 18 9 2 1 -14 5 -16 19 -8 13 7 23 6 32 -2 10 -9 11 -9 6 1 -4 6
-4 12 1 13 4 1 20 2 34 3 14 2 31 6 37 10 7 4 12 2 12 -3 0 -6 5 -11 11 -11 5
0 8 4 5 8 -2 4 4 8 15 8 10 0 19 -4 19 -9 0 -5 6 -4 14 2 11 9 15 9 19 -1 4
-11 6 -10 6 0 1 8 6 10 14 6 7 -5 6 0 -3 11 -14 17 -14 18 7 7 28 -15 36 -15
27 1 -5 8 -2 8 9 -2 14 -11 17 -11 17 0 0 9 3 10 8 4 4 -5 26 -10 49 -10 32 0
39 3 31 12 -7 9 -7 13 0 13 6 0 14 -5 18 -11 4 -8 9 -7 14 2 7 10 12 10 23 0
12 -9 16 -9 19 0 3 9 9 9 27 -1 19 -10 22 -10 16 1 -6 9 -3 11 9 6 10 -4 20
-7 22 -7 3 0 2 -6 -2 -12 -5 -9 -3 -9 9 1 9 7 15 16 13 20 -3 4 12 7 32 6 20
0 48 6 62 14 24 14 24 14 10 -4 -13 -17 -13 -18 1 -13 9 4 23 1 30 -5 8 -7 10
-8 6 -3 -7 9 20 35 38 36 6 0 3 -5 -5 -10 -9 -6 -10 -10 -3 -10 6 0 14 4 17 9
7 11 56 11 56 -1 0 -5 5 -6 10 -3 6 4 8 11 5 16 -3 5 1 6 9 3 9 -3 13 -11 10
-18 -3 -6 1 -3 9 7 9 10 18 18 21 18 3 -1 7 -1 9 0 15 5 57 3 57 -3 0 -4 7 -5
15 -2 8 4 12 11 8 18 -4 6 0 6 9 -2 12 -9 18 -10 23 -2 5 8 11 7 23 -2 13 -11
14 -11 7 1 -6 11 -4 13 8 8 10 -4 17 -2 17 4 0 6 7 9 15 5 8 -3 15 -2 15 2 0
4 15 7 33 7 21 0 31 4 29 13 -2 9 3 10 16 3 10 -5 24 -6 32 -1 8 5 18 6 23 3
5 -3 13 1 18 8 8 12 11 12 19 -1 9 -13 14 -8 12 11 -1 4 8 4 20 1 14 -3 19 -1
14 6 -4 7 -2 12 3 12 6 0 11 -4 11 -9 0 -10 25 -9 36 2 4 3 15 2 25 -3 12 -7
20 -7 24 0 4 6 13 3 23 -8 9 -10 13 -11 7 -3 -8 12 -6 13 10 4 11 -5 27 -9 35
-8 8 1 24 -3 35 -8 17 -9 18 -8 7 5 -10 13 -9 15 13 10 14 -2 25 -8 25 -13 0
-5 5 -9 11 -9 5 0 8 4 5 8 -2 4 4 8 14 8 14 0 16 -3 8 -13 -6 -8 -8 -16 -4
-20 3 -3 6 -2 6 4 0 14 49 23 56 11 4 -6 10 -5 15 3 7 12 9 11 9 -1 1 -12 3
-11 11 3 8 14 14 15 31 6 17 -9 20 -9 15 3 -4 11 1 14 19 10 13 -2 21 -8 18
-13 -3 -5 2 -6 10 -3 9 3 14 9 12 13 -2 3 11 6 29 6 20 0 31 -3 27 -10 -3 -5
1 -4 10 2 8 7 19 9 23 5 5 -4 5 -1 1 6 -4 6 -2 12 3 12 6 0 11 -5 11 -11 0 -6
8 -3 18 8 9 10 13 13 8 6 -6 -10 -4 -12 8 -7 9 3 16 11 16 18 0 6 5 4 10 -4 9
-13 10 -13 10 0 0 12 2 13 9 1 7 -11 10 -9 16 8 8 26 22 27 28 4 4 -17 5 -17
6 0 0 9 8 17 16 17 8 0 15 6 15 13 0 8 4 7 10 -3 8 -13 14 -8 12 11 0 3 9 11
21 19 20 12 21 12 9 -3 -11 -13 -10 -15 9 -10 12 3 24 14 26 24 3 11 9 16 14
13 5 -3 9 5 9 17 0 22 0 22 16 3 8 -10 13 -13 9 -6 -3 6 1 15 10 18 9 4 14 13
11 21 -3 8 -1 11 4 8 6 -3 10 -1 10 5 0 6 5 8 12 4 8 -5 9 -2 5 9 -4 12 -1 17
10 17 9 0 13 3 10 6 -3 4 4 15 17 25 16 12 22 27 20 44 -2 19 2 25 11 21 10
-3 12 2 9 20 -3 15 0 24 8 24 9 0 9 3 0 12 -7 7 -12 17 -12 23 0 5 5 3 10 -5
8 -12 10 -8 11 15 1 17 1 34 0 38 -1 5 3 6 9 2 5 -3 10 -1 10 5 0 6 6 8 13 4
6 -4 9 -4 5 1 -4 4 -3 16 3 27 9 16 13 17 27 6 12 -10 14 -10 8 0 -4 7 -2 12
4 12 6 0 8 5 5 10 -4 6 -3 10 2 9 21 -4 33 2 33 16 0 8 5 15 11 15 6 0 8 7 5
16 -5 14 -4 15 9 4 13 -11 14 -10 9 4 -3 9 -1 16 6 16 6 0 8 4 5 10 -3 5 0 10
7 11 7 0 4 4 -7 9 -11 5 -15 9 -8 9 20 2 42 30 38 51 -2 11 1 20 7 20 6 0 5 6
-2 16 -11 12 -11 15 0 12 8 -2 14 7 15 24 1 16 -3 28 -9 28 -6 0 -4 5 4 10 9
6 11 10 3 10 -15 0 -5 30 16 48 9 8 11 11 4 8 -6 -4 -15 -2 -18 4 -4 6 -1 9 7
8 7 -2 12 2 11 9 -2 7 3 10 11 7 7 -3 19 3 27 12 9 12 10 15 2 10 -7 -4 -13
-5 -13 -2 0 3 16 12 35 20 22 10 37 24 41 40 3 14 11 24 18 23 6 -1 10 3 9 10
-2 7 4 10 12 7 9 -4 17 1 21 12 4 11 16 27 28 36 12 9 21 22 21 29 0 7 6 14
14 17 9 3 11 0 6 -9 -5 -8 -4 -11 1 -6 5 5 10 13 10 18 1 5 2 14 3 19 0 6 8
10 16 10 9 0 12 6 8 17 -5 13 -2 15 11 10 10 -4 15 -3 11 3 -8 13 20 41 31 32
5 -4 2 2 -6 12 -10 13 -10 17 -2 12 7 -4 12 -1 12 8 0 9 5 16 12 16 6 0 8 3 5
7 -4 3 1 12 11 20 11 10 12 12 2 8 -8 -3 -5 2 8 11 12 9 22 22 22 28 0 6 -5 4
-10 -4 -5 -8 -10 -10 -10 -4 0 7 12 19 26 29 14 9 23 19 21 22 -3 3 5 25 18
49 13 24 18 42 12 38 -7 -3 -5 0 4 8 9 7 14 19 11 27 -2 8 0 11 5 8 5 -3 9 4
8 16 -1 14 -8 21 -18 21 -14 -1 -15 2 -5 20 10 19 10 20 -5 7 -15 -12 -17 -11
-17 3 0 10 -4 14 -10 11 -5 -3 -10 -2 -10 4 0 5 5 13 10 16 15 9 12 27 -2 20
-7 -4 -4 2 8 12 11 10 25 30 32 46 6 15 16 27 22 27 6 0 8 5 5 10 -3 5 -1 10
5 10 7 0 10 7 6 15 -3 9 0 15 10 15 8 0 12 5 9 10 -3 6 -1 10 4 10 6 0 11 6
11 14 0 8 6 17 13 19 10 4 10 6 0 6 -7 1 -13 6 -13 12 0 5 5 7 12 3 8 -5 9 0
5 17 -6 23 -5 23 8 5 14 -19 15 -19 15 7 0 15 6 27 13 27 9 0 8 3 -2 9 -11 7
-11 9 0 13 12 4 11 8 -1 23 -9 11 -10 16 -2 11 6 -4 12 -2 12 3 0 10 -14 15
-34 12 -4 -1 -15 4 -24 11 -9 8 -13 8 -9 2 4 -7 -3 -14 -18 -17 -17 -3 -29 1
-35 12 -6 10 -10 11 -10 4 0 -15 -19 -13 -38 4 -19 18 -32 16 -25 -4 5 -16 4
-15 -9 1 -8 10 -20 16 -26 12 -7 -4 -12 -3 -12 1 0 5 -10 9 -22 10 -11 1 -25
8 -29 15 -6 9 -9 10 -9 1 0 -7 -12 -1 -26 12 -15 14 -33 25 -41 25 -8 0 -11 5
-8 10 4 6 1 18 -7 27 -11 14 -11 16 1 8 11 -6 13 -4 7 11 -4 10 -4 15 0 11 4
-4 16 5 27 20 10 16 17 21 14 11 -7 -19 17 -18 36 2 10 11 8 11 -8 0 -20 -15
-20 -15 0 8 11 13 21 19 23 13 2 -7 8 -6 17 2 7 7 10 16 7 21 -3 5 2 6 12 3
10 -4 19 -1 23 9 5 13 7 13 14 2 7 -10 9 -10 9 3 0 9 11 21 25 27 24 11 26 42
3 42 -5 0 -6 5 -2 12 4 6 3 8 -3 5 -5 -3 -17 3 -27 15 -13 14 -21 17 -29 9 -7
-7 -17 -3 -33 14 -23 25 -62 36 -48 13 4 -7 3 -8 -5 -4 -6 4 -10 10 -7 14 2 4
-6 16 -17 27 -11 11 -17 14 -13 8 5 -9 2 -11 -9 -7 -8 4 -20 14 -25 24 -6 12
-19 17 -36 15 -19 -2 -28 3 -31 16 -3 10 -9 16 -14 13 -5 -3 -9 0 -9 6 0 7 -7
10 -14 7 -9 -4 -17 2 -21 14 -6 17 -17 24 -38 20 -5 -1 -6 3 -3 8 3 5 -1 11
-9 15 -8 3 -15 12 -15 21 0 8 -7 15 -17 15 -9 0 -13 3 -10 6 4 4 -3 15 -15 25
-12 12 -16 19 -8 19 7 0 0 12 -16 26 -16 15 -23 23 -17 20 9 -5 11 -2 7 8 -3
9 -10 13 -15 10 -5 -3 -9 4 -9 16 0 13 -4 19 -11 14 -8 -4 -9 0 -4 15 3 12 3
21 -2 20 -4 -1 -15 -1 -23 1 -11 1 -9 4 5 10 18 8 18 9 2 9 -10 1 -17 7 -15
13 3 7 -5 21 -16 31 -12 10 -14 15 -6 11 11 -5 10 -2 -3 13 -9 11 -14 23 -10
26 3 4 1 7 -6 7 -7 0 -10 4 -6 9 3 5 -2 16 -11 25 -8 9 -12 20 -9 26 3 5 1 10
-4 10 -6 0 -11 7 -11 15 0 8 -4 15 -9 15 -5 0 -7 8 -4 19 3 11 -3 24 -15 32
-10 8 -18 22 -16 32 1 10 -4 17 -14 17 -15 0 -15 2 -2 10 10 6 11 10 3 10 -7
0 -13 9 -13 20 0 11 -4 20 -10 20 -5 0 -10 5 -10 11 0 5 5 7 12 3 7 -4 8 -3 4
5 -4 6 -11 9 -16 6 -5 -3 -11 -1 -15 5 -3 5 -1 10 6 10 6 0 1 9 -12 21 -13 11
-18 17 -11 14 11 -6 11 -3 0 14 -7 12 -18 19 -24 17 -6 -2 -9 8 -6 26 4 24 2
29 -8 23 -10 -6 -12 -4 -7 8 3 10 2 17 -4 17 -6 0 -7 5 -4 10 3 6 1 10 -5 10
-6 0 -8 5 -5 10 3 6 1 10 -5 10 -7 0 -9 7 -6 16 3 8 2 12 -4 9 -6 -3 -10 1
-10 9 0 8 -8 17 -17 19 -17 4 -17 5 0 6 15 1 14 4 -8 25 -14 13 -27 33 -28 45
-1 13 -5 17 -12 11 -7 -6 -11 -2 -13 11 -1 10 -3 28 -4 38 -1 11 -5 19 -8 19
-25 -2 -33 3 -22 14 9 9 5 17 -16 35 -18 15 -22 23 -12 23 12 1 11 3 -3 14
-12 10 -15 16 -7 21 6 4 9 13 6 20 -2 7 2 24 9 39 8 15 10 24 5 21 -5 -3 -11
-1 -15 5 -3 5 0 10 7 10 8 0 9 3 3 8 -15 10 -12 35 5 50 8 7 11 12 5 11 -22
-3 -29 2 -15 11 9 6 10 10 3 10 -8 0 -9 9 -4 28 5 15 4 37 0 50 -5 12 -5 22
-1 22 4 0 8 9 8 20 0 11 -5 20 -11 20 -5 0 -3 5 5 10 8 5 10 10 5 10 -6 0 -11
9 -11 20 0 14 5 19 15 15 12 -5 12 -3 0 11 -18 22 -17 66 1 82 8 7 11 12 5 11
-22 -3 -29 2 -15 11 9 6 10 10 3 10 -8 0 -9 9 -4 28 4 15 4 40 0 55 -7 24 -5
28 9 23 15 -5 15 -4 2 6 -8 7 -15 25 -14 41 1 15 -4 27 -10 27 -6 0 -4 5 4 10
10 6 11 10 3 10 -13 0 -13 64 0 76 4 4 7 12 7 18 0 6 -5 4 -10 -4 -8 -12 -10
-10 -7 10 1 14 6 30 10 37 4 6 2 15 -4 19 -8 5 -9 3 -4 -6 5 -9 4 -11 -4 -6
-8 5 -9 12 -3 19 12 16 7 48 -10 58 -11 7 -11 9 0 9 8 0 10 5 6 12 -9 15 -12
58 -3 53 3 -2 6 3 6 11 0 9 -6 13 -16 9 -11 -3 -10 0 3 10 17 13 18 15 3 15
-9 0 -17 5 -17 10 0 6 5 10 11 10 6 0 7 5 2 13 -4 6 -6 23 -4 36 2 17 -1 21
-11 15 -11 -6 -11 -5 0 8 14 18 13 88 -1 88 -5 0 -3 8 4 17 10 11 10 14 2 9
-8 -4 -13 -1 -13 8 0 9 6 16 13 16 7 0 8 3 2 8 -15 11 -18 42 -5 57 8 9 8 15
0 20 -5 3 -10 15 -10 26 0 10 -6 19 -12 19 -8 0 -9 3 -3 8 15 11 17 32 3 32
-9 0 -9 3 0 12 17 17 15 28 -5 28 -14 0 -15 2 -5 9 8 4 12 17 11 27 -2 11 0
25 4 32 5 7 4 12 -2 12 -6 0 -11 7 -11 16 0 9 5 12 13 8 8 -5 7 -2 -2 9 -17
21 -23 139 -7 131 6 -3 2 2 -8 10 -11 9 -15 16 -10 16 6 0 11 7 11 15 0 10 -6
14 -15 10 -12 -4 -13 -3 -2 10 10 12 10 15 -1 15 -12 0 -12 2 -1 9 8 4 14 12
14 16 0 4 -6 12 -14 16 -8 6 -9 9 -1 9 14 0 6 62 -9 71 -6 4 -5 9 3 12 10 4
10 6 2 6 -7 1 -13 13 -13 28 0 14 -3 23 -7 20 -3 -4 -12 1 -20 11 -9 10 -11
11 -7 2 7 -13 5 -13 -9 -1 -15 12 -17 11 -18 -5 0 -18 -1 -18 -8 0 -7 18 -8
18 -14 2z m-2025 -1188 c-7 -7 -12 -8 -12 -2 0 6 3 14 7 17 3 4 9 5 12 2 2 -3
-1 -11 -7 -17z m-2257 -1058 c3 -6 -1 -7 -9 -4 -18 7 -21 14 -7 14 6 0 13 -4
16 -10z m5295 -1374 c0 -3 -4 -8 -10 -11 -5 -3 -10 -1 -10 4 0 6 5 11 10 11 6
0 10 -2 10 -4z m-150 -1065 c0 -5 -7 -12 -16 -15 -14 -5 -15 -4 -4 9 14 17 20
19 20 6z m-4540 -1191 c0 -5 -2 -10 -4 -10 -3 0 -8 5 -11 10 -3 6 -1 10 4 10
6 0 11 -4 11 -10z"/>
<path d="M5866 1983 c-6 -14 -5 -15 5 -6 7 7 10 15 7 18 -3 3 -9 -2 -12 -12z"/>
<path d="M2760 140 c-9 -6 -10 -10 -3 -10 6 0 15 5 18 10 8 12 4 12 -15 0z"/>
</g>
</svg>
